# xmcd
#
# Track frame offsets:
#	150
#	32227
#	45135
#	63877
#	85285
#	100920
#	120425
#	148012
#	169365
#	187785
#	217150
#	228297
#	244285
#	256302
#	275640
#	293460
#	311817
#
# Disc length: 4385 seconds
#
# Revision: 1
# Processed by: cddbd v1.5.1PL0 Copyright (c) Steve Scherf et al.
# Submitted via: CDex 1.50Beta5
#
DISCID=f1111f11
DTITLE=ドアーズ - ミュージック・ライフ/ワーナー・パイオニア編
DYEAR=1990
DGENRE=Rock
TTITLE0=ドアーズ/ハートに火をつけて
TTITLE1=ジェームス・テイラー/スイート・ベイビー・ジェイムス
TTITLE2=アメリカ/名前のない馬
TTITLE3=ドゥービー・ブラザーズ/リッスン・トゥ・ザ・ミュージック
TTITLE4=アリス・クーパー/スクールズ・アウト
TTITLE5=カーリー・サイモン/うつろな愛
TTITLE6=ディープ・パープル/ハイウェイ・スター
TTITLE7=ジャクソン・ブラウン/青春の日々
TTITLE8=ロッド・スチュワート/スリー・タイム・ルーザー
TTITLE9=イーグルス/ホテル・カリフォルニア
TTITLE10=リンダ・ロンシュタット/イッツ・ソー・イージー
TTITLE11=フリートウッド・マック/ユー・メイク・ミー・ラビング・ファン
TTITLE12=ディーボ/サティスファクション
TTITLE13=クリストファー・クロス/オール・ライト
TTITLE14=カーズ/マジック
TTITLE15=デビッド・リー・ロス/まるっきりパラダイス
TTITLE16=a〜ha/テイク・オン・ミー
EXTD=
EXTT0=
EXTT1=
EXTT2=
EXTT3=
EXTT4=
EXTT5=
EXTT6=
EXTT7=
EXTT8=
EXTT9=
EXTT10=
EXTT11=
EXTT12=
EXTT13=
EXTT14=
EXTT15=
EXTT16=
PLAYORDER=
